<svg xmlns="http://www.w3.org/2000/svg" width="120" height="120" viewBox="0 0 120 120" fill="none">
  <defs>
    <linearGradient id="pcShieldDark" x1="20" y1="16" x2="96" y2="106" gradientUnits="userSpaceOnUse">
      <stop stop-color="#0F8B8D"/>
      <stop offset="1" stop-color="#145269"/>
    </linearGradient>
  </defs>
  <path d="M60 10L98 24V52C98 78 82 101 60 110C38 101 22 78 22 52V24L60 10Z" fill="url(#pcShieldDark)"/>
  <path d="M56 28C48.8203 28 43 33.8203 43 41C43 46.4399 46.3386 51.1001 51.0781 53.0312V66.9219C51.0781 74.1458 56.9348 80 64.1562 80H66.5C69.5376 80 72 82.4624 72 85.5C72 88.5376 69.5376 91 66.5 91C64.2204 91 62.2646 89.6127 61.4238 87.6357C60.7654 86.0869 58.9756 85.3642 57.4268 86.0225C55.8779 86.6809 55.1552 88.4708 55.8135 90.0195C57.6073 94.2393 61.7788 97 66.5 97C72.8513 97 78 91.8513 78 85.5C78 79.1487 72.8513 74 66.5 74H64.1562C60.2485 74 57.0781 70.8316 57.0781 66.9219V53.917C62.8038 52.8495 67 47.835 67 41C67 33.8203 61.1797 28 54 28H56ZM55 34C58.866 34 62 37.134 62 41C62 44.866 58.866 48 55 48C51.134 48 48 44.866 48 41C48 37.134 51.134 34 55 34Z" fill="#F6F2E8"/>
</svg>
